<mxfile host="app.diagrams.net" agent="Mozilla/5.0 (Windows NT 10.0; Win64; x64) AppleWebKit/537.36 (KHTML, like Gecko) Chrome/131.0.0.0 Safari/537.36" version="26.0.5">
  <diagram name="Page-1" id="fQ-xzuN8cEHuRmv-wpgN">
    <mxGraphModel dx="1050" dy="530" grid="1" gridSize="10" guides="1" tooltips="1" connect="1" arrows="1" fold="1" page="1" pageScale="1" pageWidth="2339" pageHeight="3300" math="0" shadow="0">
      <root>
        <mxCell id="0" />
        <mxCell id="1" parent="0" />
        <mxCell id="c1QbHI2cHVnivCczV5HK-3" style="edgeStyle=orthogonalEdgeStyle;rounded=0;orthogonalLoop=1;jettySize=auto;html=1;entryX=0;entryY=1;entryDx=0;entryDy=0;" edge="1" parent="1" source="c1QbHI2cHVnivCczV5HK-1" target="c1QbHI2cHVnivCczV5HK-2">
          <mxGeometry relative="1" as="geometry" />
        </mxCell>
        <mxCell id="c1QbHI2cHVnivCczV5HK-1" value="Actor" style="shape=umlActor;verticalLabelPosition=bottom;verticalAlign=top;html=1;outlineConnect=0;" vertex="1" parent="1">
          <mxGeometry x="200" y="310" width="30" height="60" as="geometry" />
        </mxCell>
        <mxCell id="c1QbHI2cHVnivCczV5HK-2" value="" style="image;aspect=fixed;perimeter=ellipsePerimeter;html=1;align=center;shadow=0;dashed=0;spacingTop=3;image=img/lib/active_directory/sql_server.svg;" vertex="1" parent="1">
          <mxGeometry x="191.5" y="180" width="38.5" height="50" as="geometry" />
        </mxCell>
        <mxCell id="c1QbHI2cHVnivCczV5HK-7" style="edgeStyle=orthogonalEdgeStyle;rounded=0;orthogonalLoop=1;jettySize=auto;html=1;" edge="1" parent="1" source="c1QbHI2cHVnivCczV5HK-4" target="c1QbHI2cHVnivCczV5HK-5">
          <mxGeometry relative="1" as="geometry" />
        </mxCell>
        <mxCell id="c1QbHI2cHVnivCczV5HK-4" value="&lt;font style=&quot;font-size: 18px;&quot;&gt;&lt;b&gt;Route&lt;/b&gt;&lt;/font&gt;" style="whiteSpace=wrap;html=1;shape=mxgraph.basic.document;fillColor=#fff2cc;strokeColor=#d6b656;" vertex="1" parent="1">
          <mxGeometry x="330" y="100" width="80" height="60" as="geometry" />
        </mxCell>
        <mxCell id="c1QbHI2cHVnivCczV5HK-11" style="edgeStyle=orthogonalEdgeStyle;rounded=0;orthogonalLoop=1;jettySize=auto;html=1;" edge="1" parent="1" source="c1QbHI2cHVnivCczV5HK-5" target="c1QbHI2cHVnivCczV5HK-10">
          <mxGeometry relative="1" as="geometry" />
        </mxCell>
        <mxCell id="c1QbHI2cHVnivCczV5HK-5" value="" style="shape=image;html=1;verticalAlign=top;verticalLabelPosition=bottom;labelBackgroundColor=#ffffff;imageAspect=0;aspect=fixed;image=https://cdn4.iconfinder.com/data/icons/success-filloutline/64/brain-think-brainstorm-creative-idea-128.png" vertex="1" parent="1">
          <mxGeometry x="410" y="242" width="128" height="128" as="geometry" />
        </mxCell>
        <mxCell id="c1QbHI2cHVnivCczV5HK-6" style="edgeStyle=orthogonalEdgeStyle;rounded=0;orthogonalLoop=1;jettySize=auto;html=1;entryX=0;entryY=0.5;entryDx=0;entryDy=0;entryPerimeter=0;" edge="1" parent="1" source="c1QbHI2cHVnivCczV5HK-2" target="c1QbHI2cHVnivCczV5HK-4">
          <mxGeometry relative="1" as="geometry" />
        </mxCell>
        <mxCell id="c1QbHI2cHVnivCczV5HK-8" value="" style="shape=cylinder3;whiteSpace=wrap;html=1;boundedLbl=1;backgroundOutline=1;size=15;fillColor=#f5f5f5;fontColor=#333333;strokeColor=#666666;" vertex="1" parent="1">
          <mxGeometry x="290" y="370" width="60" height="90" as="geometry" />
        </mxCell>
        <mxCell id="c1QbHI2cHVnivCczV5HK-9" style="edgeStyle=orthogonalEdgeStyle;rounded=0;orthogonalLoop=1;jettySize=auto;html=1;entryX=0.5;entryY=0;entryDx=0;entryDy=0;entryPerimeter=0;" edge="1" parent="1" source="c1QbHI2cHVnivCczV5HK-5" target="c1QbHI2cHVnivCczV5HK-8">
          <mxGeometry relative="1" as="geometry" />
        </mxCell>
        <mxCell id="c1QbHI2cHVnivCczV5HK-13" style="edgeStyle=orthogonalEdgeStyle;rounded=0;orthogonalLoop=1;jettySize=auto;html=1;" edge="1" parent="1" source="c1QbHI2cHVnivCczV5HK-10" target="c1QbHI2cHVnivCczV5HK-12">
          <mxGeometry relative="1" as="geometry">
            <Array as="points">
              <mxPoint x="777" y="520" />
            </Array>
          </mxGeometry>
        </mxCell>
        <mxCell id="c1QbHI2cHVnivCczV5HK-10" value="" style="shadow=0;dashed=0;html=1;strokeColor=none;fillColor=#4495D1;labelPosition=center;verticalLabelPosition=bottom;verticalAlign=top;align=center;outlineConnect=0;shape=mxgraph.veeam.2d.file_system_browser;" vertex="1" parent="1">
          <mxGeometry x="710" y="275" width="134.8" height="130" as="geometry" />
        </mxCell>
        <mxCell id="c1QbHI2cHVnivCczV5HK-14" style="edgeStyle=orthogonalEdgeStyle;rounded=0;orthogonalLoop=1;jettySize=auto;html=1;" edge="1" parent="1" source="c1QbHI2cHVnivCczV5HK-12" target="c1QbHI2cHVnivCczV5HK-15">
          <mxGeometry relative="1" as="geometry">
            <mxPoint x="210" y="380" as="targetPoint" />
          </mxGeometry>
        </mxCell>
        <mxCell id="c1QbHI2cHVnivCczV5HK-12" value="" style="sketch=0;pointerEvents=1;shadow=0;dashed=0;html=1;strokeColor=none;fillColor=#005F4B;labelPosition=center;verticalLabelPosition=bottom;verticalAlign=top;align=center;outlineConnect=0;shape=mxgraph.veeam2.file_browser;" vertex="1" parent="1">
          <mxGeometry x="510" y="520" width="118" height="124" as="geometry" />
        </mxCell>
        <mxCell id="c1QbHI2cHVnivCczV5HK-16" style="edgeStyle=orthogonalEdgeStyle;rounded=0;orthogonalLoop=1;jettySize=auto;html=1;" edge="1" parent="1" source="c1QbHI2cHVnivCczV5HK-15" target="c1QbHI2cHVnivCczV5HK-1">
          <mxGeometry relative="1" as="geometry" />
        </mxCell>
        <mxCell id="c1QbHI2cHVnivCczV5HK-15" value="&lt;b&gt;&lt;font style=&quot;font-size: 21px;&quot;&gt;Http Response&lt;/font&gt;&lt;/b&gt;" style="shape=process;whiteSpace=wrap;html=1;backgroundOutline=1;" vertex="1" parent="1">
          <mxGeometry x="260" y="530" width="120" height="60" as="geometry" />
        </mxCell>
        <mxCell id="c1QbHI2cHVnivCczV5HK-17" value="" style="shape=image;html=1;verticalAlign=top;verticalLabelPosition=bottom;labelBackgroundColor=#ffffff;imageAspect=0;aspect=fixed;image=https://cdn0.iconfinder.com/data/icons/call-center-and-service/32/36-404_error-128.png;imageBackground=#FFFFFF;" vertex="1" parent="1">
          <mxGeometry x="240" y="180" width="98" height="98" as="geometry" />
        </mxCell>
        <mxCell id="c1QbHI2cHVnivCczV5HK-18" value="&lt;font style=&quot;font-size: 18px;&quot;&gt;Route:Fond(True)&lt;/font&gt;" style="rounded=1;whiteSpace=wrap;html=1;fillColor=#d5e8d4;strokeColor=#82b366;" vertex="1" parent="1">
          <mxGeometry x="390" y="160" width="190" height="60" as="geometry" />
        </mxCell>
        <mxCell id="c1QbHI2cHVnivCczV5HK-19" value="&lt;span style=&quot;font-size: 18px;&quot;&gt;False&lt;/span&gt;" style="rounded=1;whiteSpace=wrap;html=1;fillColor=#f8cecc;strokeColor=#b85450;" vertex="1" parent="1">
          <mxGeometry x="230" y="242" width="140" height="40" as="geometry" />
        </mxCell>
        <mxCell id="c1QbHI2cHVnivCczV5HK-21" value="&lt;font style=&quot;font-size: 18px;&quot;&gt;Migration(DB=&amp;gt;Sql)&lt;/font&gt;" style="shape=process;whiteSpace=wrap;html=1;backgroundOutline=1;fillColor=#e1d5e7;strokeColor=#9673a6;" vertex="1" parent="1">
          <mxGeometry x="260" y="440" width="230" height="80" as="geometry" />
        </mxCell>
        <mxCell id="c1QbHI2cHVnivCczV5HK-22" value="" style="rounded=1;whiteSpace=wrap;html=1;" vertex="1" parent="1">
          <mxGeometry x="210" y="695" width="810" height="280" as="geometry" />
        </mxCell>
        <mxCell id="c1QbHI2cHVnivCczV5HK-25" style="edgeStyle=orthogonalEdgeStyle;rounded=0;orthogonalLoop=1;jettySize=auto;html=1;" edge="1" parent="1" source="c1QbHI2cHVnivCczV5HK-23" target="c1QbHI2cHVnivCczV5HK-24">
          <mxGeometry relative="1" as="geometry" />
        </mxCell>
        <mxCell id="c1QbHI2cHVnivCczV5HK-23" value="&lt;font style=&quot;font-size: 18px;&quot;&gt;&lt;b&gt;Route&lt;/b&gt;&lt;/font&gt;" style="whiteSpace=wrap;html=1;shape=mxgraph.basic.document;fillColor=#fff2cc;strokeColor=#d6b656;" vertex="1" parent="1">
          <mxGeometry x="300" y="775" width="80" height="60" as="geometry" />
        </mxCell>
        <mxCell id="c1QbHI2cHVnivCczV5HK-24" value="&lt;span style=&quot;font-size: 18px;&quot;&gt;&lt;b&gt;Controller&lt;/b&gt;&lt;/span&gt;" style="whiteSpace=wrap;html=1;shape=mxgraph.basic.document;fillColor=#fff2cc;strokeColor=#d6b656;" vertex="1" parent="1">
          <mxGeometry x="480" y="765" width="160" height="70" as="geometry" />
        </mxCell>
        <mxCell id="c1QbHI2cHVnivCczV5HK-26" style="edgeStyle=orthogonalEdgeStyle;rounded=0;orthogonalLoop=1;jettySize=auto;html=1;entryX=0.865;entryY=1.027;entryDx=0;entryDy=0;entryPerimeter=0;" edge="1" parent="1" source="c1QbHI2cHVnivCczV5HK-24" target="c1QbHI2cHVnivCczV5HK-23">
          <mxGeometry relative="1" as="geometry">
            <Array as="points">
              <mxPoint x="369" y="825" />
            </Array>
          </mxGeometry>
        </mxCell>
        <mxCell id="c1QbHI2cHVnivCczV5HK-31" style="edgeStyle=orthogonalEdgeStyle;rounded=0;orthogonalLoop=1;jettySize=auto;html=1;" edge="1" parent="1" source="c1QbHI2cHVnivCczV5HK-27" target="c1QbHI2cHVnivCczV5HK-22">
          <mxGeometry relative="1" as="geometry">
            <Array as="points">
              <mxPoint x="490" y="925" />
              <mxPoint x="490" y="925" />
            </Array>
          </mxGeometry>
        </mxCell>
        <mxCell id="c1QbHI2cHVnivCczV5HK-33" style="edgeStyle=orthogonalEdgeStyle;rounded=0;orthogonalLoop=1;jettySize=auto;html=1;" edge="1" parent="1" source="c1QbHI2cHVnivCczV5HK-27" target="c1QbHI2cHVnivCczV5HK-22">
          <mxGeometry relative="1" as="geometry">
            <Array as="points">
              <mxPoint x="550" y="945" />
              <mxPoint x="550" y="945" />
            </Array>
          </mxGeometry>
        </mxCell>
        <mxCell id="c1QbHI2cHVnivCczV5HK-35" style="edgeStyle=orthogonalEdgeStyle;rounded=0;orthogonalLoop=1;jettySize=auto;html=1;" edge="1" parent="1" source="c1QbHI2cHVnivCczV5HK-27" target="c1QbHI2cHVnivCczV5HK-32">
          <mxGeometry relative="1" as="geometry">
            <Array as="points">
              <mxPoint x="800" y="915" />
            </Array>
          </mxGeometry>
        </mxCell>
        <mxCell id="c1QbHI2cHVnivCczV5HK-27" value="&lt;span style=&quot;font-size: 18px;&quot;&gt;&lt;b&gt;View&lt;/b&gt;&lt;/span&gt;" style="whiteSpace=wrap;html=1;shape=mxgraph.basic.document;fillColor=#fff2cc;strokeColor=#d6b656;" vertex="1" parent="1">
          <mxGeometry x="720" y="770" width="160" height="70" as="geometry" />
        </mxCell>
        <mxCell id="c1QbHI2cHVnivCczV5HK-28" style="edgeStyle=orthogonalEdgeStyle;rounded=0;orthogonalLoop=1;jettySize=auto;html=1;entryX=0;entryY=0.5;entryDx=0;entryDy=0;entryPerimeter=0;" edge="1" parent="1" source="c1QbHI2cHVnivCczV5HK-24" target="c1QbHI2cHVnivCczV5HK-27">
          <mxGeometry relative="1" as="geometry">
            <Array as="points">
              <mxPoint x="690" y="775" />
              <mxPoint x="690" y="785" />
              <mxPoint x="720" y="785" />
            </Array>
          </mxGeometry>
        </mxCell>
        <mxCell id="c1QbHI2cHVnivCczV5HK-29" value="&lt;span style=&quot;font-size: 18px;&quot;&gt;&lt;b&gt;Create DB ==&amp;gt; Migration&lt;/b&gt;&lt;/span&gt;" style="whiteSpace=wrap;html=1;shape=mxgraph.basic.document;fillColor=#fff2cc;strokeColor=#d6b656;" vertex="1" parent="1">
          <mxGeometry x="270" y="675" width="200" height="60" as="geometry" />
        </mxCell>
        <mxCell id="c1QbHI2cHVnivCczV5HK-30" style="edgeStyle=orthogonalEdgeStyle;rounded=0;orthogonalLoop=1;jettySize=auto;html=1;entryX=0.942;entryY=0.977;entryDx=0;entryDy=0;entryPerimeter=0;" edge="1" parent="1" source="c1QbHI2cHVnivCczV5HK-27" target="c1QbHI2cHVnivCczV5HK-24">
          <mxGeometry relative="1" as="geometry">
            <Array as="points">
              <mxPoint x="680" y="835" />
              <mxPoint x="680" y="833" />
            </Array>
          </mxGeometry>
        </mxCell>
        <mxCell id="c1QbHI2cHVnivCczV5HK-32" value="uSER" style="shape=umlActor;verticalLabelPosition=bottom;verticalAlign=top;html=1;outlineConnect=0;" vertex="1" parent="1">
          <mxGeometry x="458" y="875" width="30" height="60" as="geometry" />
        </mxCell>
        <mxCell id="c1QbHI2cHVnivCczV5HK-36" value="" style="shape=cylinder3;whiteSpace=wrap;html=1;boundedLbl=1;backgroundOutline=1;size=15;fillColor=#f5f5f5;fontColor=#333333;strokeColor=#666666;" vertex="1" parent="1">
          <mxGeometry x="440" y="655" width="60" height="80" as="geometry" />
        </mxCell>
        <mxCell id="c1QbHI2cHVnivCczV5HK-37" value="&lt;font style=&quot;font-size: 24px;&quot;&gt;&lt;b&gt;DB&lt;/b&gt;&lt;/font&gt;" style="text;html=1;align=center;verticalAlign=middle;whiteSpace=wrap;rounded=0;" vertex="1" parent="1">
          <mxGeometry x="440" y="695" width="60" height="30" as="geometry" />
        </mxCell>
        <mxCell id="c1QbHI2cHVnivCczV5HK-38" value="&lt;font style=&quot;font-size: 17px;&quot;&gt;===&amp;gt; Route ==&amp;gt;&amp;nbsp;&lt;br&gt;Route ::get(&#39;/allStudents&#39;,[StudentController::Class,index)-&amp;gt;name(&#39;students.index&#39;);&lt;/font&gt;&lt;div&gt;&lt;font style=&quot;font-size: 17px;&quot;&gt;&lt;br&gt;&lt;/font&gt;&lt;/div&gt;&lt;div&gt;&lt;font style=&quot;font-size: 17px;&quot;&gt;Contollre = ==&amp;gt; function index(){&lt;/font&gt;&lt;/div&gt;&lt;div&gt;&lt;font style=&quot;font-size: 17px;&quot;&gt;code &lt;br&gt;return view(&#39;index&#39;);}&lt;/font&gt;&lt;/div&gt;" style="rounded=0;whiteSpace=wrap;html=1;" vertex="1" parent="1">
          <mxGeometry x="240" y="1040" width="770" height="150" as="geometry" />
        </mxCell>
        <mxCell id="c1QbHI2cHVnivCczV5HK-39" value="&lt;font style=&quot;font-size: 18px;&quot;&gt;Show All Data&lt;/font&gt;" style="text;html=1;align=center;verticalAlign=middle;whiteSpace=wrap;rounded=0;fillColor=#e1d5e7;strokeColor=#9673a6;" vertex="1" parent="1">
          <mxGeometry x="280" y="1020" width="180" height="30" as="geometry" />
        </mxCell>
        <mxCell id="c1QbHI2cHVnivCczV5HK-40" value="&lt;font style=&quot;font-size: 17px;&quot;&gt;===&amp;gt; Route ==&amp;gt;&amp;nbsp;&lt;br&gt;Route ::get(&#39;/allStudents/{id}&#39;,[StudentController::Class,show)-&amp;gt;name(&#39;students.show&#39;);&lt;/font&gt;&lt;div&gt;&lt;font style=&quot;font-size: 17px;&quot;&gt;&lt;br&gt;&lt;/font&gt;&lt;/div&gt;&lt;div&gt;&lt;font style=&quot;font-size: 17px;&quot;&gt;Contollre = ==&amp;gt; function view(){&lt;/font&gt;&lt;/div&gt;&lt;div&gt;&lt;font style=&quot;font-size: 17px;&quot;&gt;code ==&amp;gt; check (user is exist or not)&lt;br&gt;return view(&#39;show);}&lt;/font&gt;&lt;/div&gt;" style="rounded=0;whiteSpace=wrap;html=1;" vertex="1" parent="1">
          <mxGeometry x="240" y="1200" width="770" height="150" as="geometry" />
        </mxCell>
        <mxCell id="c1QbHI2cHVnivCczV5HK-41" value="&lt;font style=&quot;font-size: 18px;&quot;&gt;Show data of student&lt;/font&gt;" style="text;html=1;align=center;verticalAlign=middle;whiteSpace=wrap;rounded=0;fillColor=#e1d5e7;strokeColor=#9673a6;" vertex="1" parent="1">
          <mxGeometry x="280" y="1180" width="180" height="30" as="geometry" />
        </mxCell>
        <mxCell id="c1QbHI2cHVnivCczV5HK-42" value="&lt;font style=&quot;font-size: 17px;&quot;&gt;===&amp;gt; Route ==&amp;gt;&amp;nbsp;&lt;br&gt;Route ::get(&#39;/allStudents/{id}&#39;,[StudentController::Class,destroy)-&amp;gt;name(&#39;students.destroy&#39;);&lt;/font&gt;&lt;div&gt;&lt;font style=&quot;font-size: 17px;&quot;&gt;&lt;br&gt;&lt;/font&gt;&lt;/div&gt;&lt;div&gt;&lt;font style=&quot;font-size: 17px;&quot;&gt;Contollre = ==&amp;gt; function destroy(){&lt;/font&gt;&lt;/div&gt;&lt;div&gt;&lt;font style=&quot;font-size: 17px;&quot;&gt;code ==&amp;gt; check (user is exist or not)&lt;br&gt;delete student ==&amp;gt; return to route (students.index) ==&amp;gt; to show all data of stundets}&lt;/font&gt;&lt;/div&gt;" style="rounded=0;whiteSpace=wrap;html=1;" vertex="1" parent="1">
          <mxGeometry x="240" y="1360" width="770" height="150" as="geometry" />
        </mxCell>
        <mxCell id="c1QbHI2cHVnivCczV5HK-43" value="&lt;font style=&quot;font-size: 18px;&quot;&gt;Delete data of student&lt;/font&gt;" style="text;html=1;align=center;verticalAlign=middle;whiteSpace=wrap;rounded=0;fillColor=#e1d5e7;strokeColor=#9673a6;" vertex="1" parent="1">
          <mxGeometry x="295" y="1340" width="180" height="30" as="geometry" />
        </mxCell>
        <mxCell id="c1QbHI2cHVnivCczV5HK-44" value="&lt;font style=&quot;font-size: 17px; color: rgb(0, 0, 0);&quot;&gt;&lt;b&gt;form take all data from user&amp;nbsp;&lt;br&gt;===&amp;gt; Route ==&amp;gt;&amp;nbsp;&lt;br&gt;Route ::get(&#39;/allStudents/create&#39;,[StudentController::Class,create)-&amp;gt;name(&#39;students.create&#39;);&lt;/b&gt;&lt;/font&gt;&lt;div&gt;&lt;font style=&quot;font-size: 17px; color: rgb(0, 0, 0);&quot;&gt;&lt;b&gt;&lt;br&gt;&lt;/b&gt;&lt;/font&gt;&lt;/div&gt;&lt;div&gt;&lt;font style=&quot;font-size: 17px; color: rgb(0, 0, 0);&quot;&gt;&lt;b&gt;Contollre = ==&amp;gt; function create(){&lt;/b&gt;&lt;/font&gt;&lt;/div&gt;&lt;div&gt;&lt;font style=&quot;font-size: 17px; color: rgb(0, 0, 0);&quot;&gt;&lt;b&gt;view (&#39;create&#39;)&amp;nbsp; ==&amp;gt; view ==&amp;gt; take data&lt;/b&gt;&lt;/font&gt;&lt;/div&gt;&lt;div&gt;&lt;font style=&quot;font-size: 17px; color: rgb(0, 0, 0);&quot;&gt;&lt;b&gt;}&lt;/b&gt;&lt;/font&gt;&lt;/div&gt;" style="rounded=0;whiteSpace=wrap;html=1;fillColor=#ffe6cc;fontColor=#333333;strokeColor=#d79b00;" vertex="1" parent="1">
          <mxGeometry x="237" y="1540" width="770" height="150" as="geometry" />
        </mxCell>
        <mxCell id="c1QbHI2cHVnivCczV5HK-45" value="&lt;font style=&quot;font-size: 18px;&quot;&gt;Create student&lt;/font&gt;" style="text;html=1;align=center;verticalAlign=middle;whiteSpace=wrap;rounded=0;fillColor=#e1d5e7;strokeColor=#9673a6;" vertex="1" parent="1">
          <mxGeometry x="237" y="1520" width="180" height="30" as="geometry" />
        </mxCell>
        <mxCell id="c1QbHI2cHVnivCczV5HK-46" value="&lt;font style=&quot;font-size: 17px; color: rgb(0, 0, 0);&quot;&gt;&lt;b&gt;&lt;br&gt;select data from form of create ==&amp;gt; store in DB&lt;br&gt;===&amp;gt; Route ==&amp;gt;&amp;nbsp;&lt;br&gt;Route ::post(&#39;/students/store&#39;,[StudentController::Class,store)-&amp;gt;name(&#39;students.store&#39;);&lt;/b&gt;&lt;/font&gt;&lt;div&gt;&lt;font style=&quot;font-size: 17px; color: rgb(0, 0, 0);&quot;&gt;&lt;b&gt;&lt;br&gt;&lt;/b&gt;&lt;/font&gt;&lt;/div&gt;&lt;div&gt;&lt;font style=&quot;font-size: 17px; color: rgb(0, 0, 0);&quot;&gt;&lt;b&gt;Contollre = ==&amp;gt; function store(){&lt;/b&gt;&lt;/font&gt;&lt;/div&gt;&lt;div&gt;&lt;span style=&quot;font-size: 17px; background-color: transparent;&quot;&gt;&lt;font style=&quot;color: rgb(0, 0, 0);&quot;&gt;&lt;b&gt;take all data ==&amp;gt; store in Db&lt;br&gt;return route (&#39;allStudents&#39;)===&amp;gt; check student create or not&lt;/b&gt;&lt;/font&gt;&lt;/span&gt;&lt;/div&gt;&lt;div&gt;&lt;span style=&quot;font-size: 17px; background-color: transparent;&quot;&gt;&lt;font style=&quot;color: rgb(0, 0, 0);&quot;&gt;&lt;b&gt;}&lt;/b&gt;&lt;/font&gt;&lt;/span&gt;&lt;/div&gt;" style="rounded=0;whiteSpace=wrap;html=1;fillColor=#ffe6cc;fontColor=#333333;strokeColor=#d79b00;" vertex="1" parent="1">
          <mxGeometry x="237" y="1690" width="770" height="190" as="geometry" />
        </mxCell>
        <mxCell id="c1QbHI2cHVnivCczV5HK-47" value="&lt;font style=&quot;font-size: 18px;&quot;&gt;store student&lt;/font&gt;" style="text;html=1;align=center;verticalAlign=middle;whiteSpace=wrap;rounded=0;fillColor=#e1d5e7;strokeColor=#9673a6;" vertex="1" parent="1">
          <mxGeometry x="238" y="1670" width="180" height="30" as="geometry" />
        </mxCell>
        <mxCell id="c1QbHI2cHVnivCczV5HK-48" value="&lt;font style=&quot;font-size: 17px; color: rgb(0, 0, 0);&quot;&gt;&lt;b&gt;&lt;br&gt;Check if student exit or not ==&amp;gt;form update user data&amp;nbsp;&lt;br&gt;===&amp;gt; Route ==&amp;gt;&amp;nbsp;&lt;br&gt;Route ::get(&#39;/allStudents/{id}/update&#39;,[StudentController::Class,update)-&amp;gt;name(&#39;students.update&#39;);&lt;/b&gt;&lt;/font&gt;&lt;div&gt;&lt;font style=&quot;font-size: 17px; color: rgb(0, 0, 0);&quot;&gt;&lt;b&gt;&lt;br&gt;&lt;/b&gt;&lt;/font&gt;&lt;/div&gt;&lt;div&gt;&lt;font style=&quot;font-size: 17px; color: rgb(0, 0, 0);&quot;&gt;&lt;b&gt;Contollre = ==&amp;gt; function update($id){&lt;/b&gt;&lt;/font&gt;&lt;/div&gt;&lt;div&gt;&lt;font style=&quot;font-size: 17px; color: rgb(0, 0, 0);&quot;&gt;&lt;b&gt;check ==&amp;gt; return&amp;nbsp;&lt;/b&gt;&lt;/font&gt;&lt;b style=&quot;color: light-dark(rgb(0, 0, 0), rgb(237, 237, 237)); font-size: 17px; background-color: transparent;&quot;&gt;view (&#39;update&#39;)&amp;nbsp; ==&amp;gt; update on student data&lt;/b&gt;&lt;/div&gt;&lt;div&gt;&lt;font style=&quot;font-size: 17px; color: rgb(0, 0, 0);&quot;&gt;&lt;b&gt;}&lt;/b&gt;&lt;/font&gt;&lt;/div&gt;" style="rounded=0;whiteSpace=wrap;html=1;fillColor=#d5e8d4;strokeColor=#82b366;" vertex="1" parent="1">
          <mxGeometry x="239" y="1890" width="780" height="200" as="geometry" />
        </mxCell>
        <mxCell id="c1QbHI2cHVnivCczV5HK-49" value="&lt;font style=&quot;font-size: 18px;&quot;&gt;update student Data&lt;/font&gt;" style="text;html=1;align=center;verticalAlign=middle;whiteSpace=wrap;rounded=0;fillColor=#e1d5e7;strokeColor=#9673a6;" vertex="1" parent="1">
          <mxGeometry x="240" y="1890" width="180" height="30" as="geometry" />
        </mxCell>
        <mxCell id="c1QbHI2cHVnivCczV5HK-50" value="&lt;font style=&quot;font-size: 17px; color: rgb(0, 0, 0);&quot;&gt;&lt;b&gt;&lt;br&gt;select updated data&amp;nbsp; ==&amp;gt; store in DB&lt;br&gt;===&amp;gt; Route ==&amp;gt;&amp;nbsp;&lt;br&gt;Route ::put(&#39;/students/{id}/edit&#39;,[StudentController::Class,edit)-&amp;gt;name(&#39;students.edit&#39;);&lt;/b&gt;&lt;/font&gt;&lt;div&gt;&lt;font style=&quot;font-size: 17px; color: rgb(0, 0, 0);&quot;&gt;&lt;b&gt;&lt;br&gt;&lt;/b&gt;&lt;/font&gt;&lt;/div&gt;&lt;div&gt;&lt;font style=&quot;font-size: 17px; color: rgb(0, 0, 0);&quot;&gt;&lt;b&gt;Contollre = ==&amp;gt; function edit($id){&lt;/b&gt;&lt;/font&gt;&lt;/div&gt;&lt;div&gt;&lt;span style=&quot;font-size: 17px; background-color: transparent;&quot;&gt;&lt;font style=&quot;color: rgb(0, 0, 0);&quot;&gt;&lt;b&gt;Chesk if user exit or not&lt;br&gt;take all data request==&amp;gt; update on data of student in DB By Requested Data&lt;br&gt;return route (&#39;allStudents&#39;)===&amp;gt; check student data updated or not&lt;/b&gt;&lt;/font&gt;&lt;/span&gt;&lt;/div&gt;&lt;div&gt;&lt;span style=&quot;font-size: 17px; background-color: transparent;&quot;&gt;&lt;font style=&quot;color: rgb(0, 0, 0);&quot;&gt;&lt;b&gt;}&lt;/b&gt;&lt;/font&gt;&lt;/span&gt;&lt;/div&gt;" style="rounded=0;whiteSpace=wrap;html=1;fillColor=#d5e8d4;strokeColor=#82b366;" vertex="1" parent="1">
          <mxGeometry x="239" y="2090" width="790" height="220" as="geometry" />
        </mxCell>
        <mxCell id="c1QbHI2cHVnivCczV5HK-51" value="&lt;font style=&quot;font-size: 18px;&quot;&gt;edit&amp;nbsp; updated student&lt;/font&gt;" style="text;html=1;align=center;verticalAlign=middle;whiteSpace=wrap;rounded=0;fillColor=#e1d5e7;strokeColor=#9673a6;" vertex="1" parent="1">
          <mxGeometry x="239" y="2090" width="180" height="30" as="geometry" />
        </mxCell>
      </root>
    </mxGraphModel>
  </diagram>
</mxfile>
